<svg width="200" height="200" viewBox="0 0 200 200" fill="none" xmlns="http://www.w3.org/2000/svg">
  <!-- Background Glow -->
  <circle cx="100" cy="100" r="80" fill="url(#glow)" opacity="0.2" />
  
  <!-- Outer Frame -->
  <path d="M40 40 L160 40 L160 160 L40 160 Z" stroke="#111111" stroke-width="1" />
  <path d="M30 30 L60 30 M30 30 L30 60" stroke="#A855F7" stroke-width="2" />
  <path d="M170 30 L140 30 M170 30 L170 60" stroke="#A855F7" stroke-width="2" />
  <path d="M30 170 L60 170 M30 170 L30 140" stroke="#A855F7" stroke-width="2" />
  <path d="M170 170 L140 170 M170 170 L170 140" stroke="#A855F7" stroke-width="2" />

  <!-- Main K Element -->
  <g filter="url(#shadow)">
    <!-- Vertical Bar -->
    <rect x="65" y="60" width="12" height="80" fill="white" />
    <rect x="65" y="60" width="4" height="80" fill="#A855F7" />
    
    <!-- Top Diagonal -->
    <path d="M77 100 L125 60 L135 60 L87 100 Z" fill="white" />
    
    <!-- Bottom Diagonal -->
    <path d="M77 100 L125 140 L135 140 L87 100 Z" fill="white" />
    
    <!-- Circuit Dots -->
    <circle cx="135" cy="60" r="4" fill="#A855F7" />
    <circle cx="135" cy="140" r="4" fill="#06B6D4" />
    <circle cx="65" cy="100" r="3" fill="#A855F7" />
  </g>

  <!-- Glitch Lines -->
  <rect x="50" y="85" width="100" height="1" fill="#A855F7" opacity="0.3">
    <animate attributeName="opacity" values="0.3;0.8;0.3" dur="2s" repeatCount="indefinite" />
  </rect>
  <rect x="50" y="115" width="100" height="1" fill="#06B6D4" opacity="0.3">
    <animate attributeName="opacity" values="0.3;0.8;0.3" dur="2.5s" repeatCount="indefinite" />
  </rect>

  <defs>
    <radialGradient id="glow" cx="0" cy="0" r="1" gradientUnits="userSpaceOnUse" gradientTransform="translate(100 100) rotate(90) scale(80)">
      <stop stop-color="#A855F7" />
      <stop offset="1" stop-color="#050505" stop-opacity="0" />
    </radialGradient>
    <filter id="shadow" x="0" y="0" width="200" height="200" filterUnits="userSpaceOnUse" color-interpolation-filters="sRGB">
      <feFlood flood-opacity="0" result="BackgroundImageFix"/>
      <feColorMatrix in="SourceAlpha" type="matrix" values="0 0 0 0 0 0 0 0 0 0 0 0 0 0 0 0 0 0 127 0" result="hardAlpha"/>
      <feOffset dx="0" dy="0"/>
      <feGaussianBlur stdDeviation="5"/>
      <feComposite in2="hardAlpha" operator="out"/>
      <feColorMatrix type="matrix" values="0 0 0 0 0.658824 0 0 0 0 0.333333 0 0 0 0 0.968627 0 0 0 0.5 0"/>
      <feBlend mode="normal" in2="BackgroundImageFix" result="effect1_dropShadow"/>
      <feBlend mode="normal" in="SourceGraphic" in2="effect1_dropShadow" result="shape"/>
    </filter>
  </defs>
</svg>
