<svg xmlns="http://www.w3.org/2000/svg" viewBox="0 0 24 24" fill="none" stroke="currentColor" stroke-width="1.5" stroke-linecap="round" stroke-linejoin="round">
  <path d="M12 2a10 10 0 0 0-10 10c0 5.52 4.48 10 10 10s10-4.48 10-10A10 10 0 0 0 12 2z"/>
  <!-- Brows -->
  <path d="M7 8c1-1 3-1 4 0M13 8c1-1 3-1 4 0"/>
  <!-- Eyes -->
  <path d="M6 10c1.5-1 3-1 3 1s-1.5 1-3 1-3-1-3-1z" fill="currentColor"/>
  <path d="M15 10c1.5-1 3-1 3 1s-1.5 1-3 1-3-1-3-1z" fill="currentColor"/>
  <!-- Mustache -->
  <path d="M9 15c1 0 2-1 3-1s2 1 3 1"/>
  <!-- Beard -->
  <path d="M12 17l-1 3h2l-1-3z" fill="currentColor"/>
</svg>
